ffmpeg started on 2025-05-12 at 14:20:15
Report written to "D:\Convert\FFMetrics\reports\ssim_report-6.txt"
Log level: 32
Command line:
ffmpeg -hide_banner -nostdin -i "G:\\\xc0\xed\xe8\xec\xe5\\\xce\xed\xe3\xee\xe8\xed\xe3\xe8\\!_35_\xcb\xe5\xf2\xee_2024\\DreamCast\\\xc2\xe8\xf2\xf3\xe1\xe5\xf0 - \xdf \xf1\xf2\xe0\xeb\xe0 \xef\xee\xef\xf3\xeb\xff\xf0\xed\xee\xe9 \xef\xee\xf1\xeb\xe5 \xf2\xee\xe3\xee, \xea\xe0\xea \xe7\xe0\xe1\xfb\xeb\xe0 \xe2\xfb\xea\xeb\xfe\xf7\xe8\xf2\xfc \xf1\xf2\xf0\xe8\xec\\[DC] Vden - 08_Telegram_HEVC.mkv" -i "G:\\\xc0\xed\xe8\xec\xe5\\\xce\xed\xe3\xee\xe8\xed\xe3\xe8\\!_35_\xcb\xe5\xf2\xee_2024\\DreamCast\\\xc2\xe8\xf2\xf3\xe1\xe5\xf0 - \xdf \xf1\xf2\xe0\xeb\xe0 \xef\xee\xef\xf3\xeb\xff\xf0\xed\xee\xe9 \xef\xee\xf1\xeb\xe5 \xf2\xee\xe3\xee, \xea\xe0\xea \xe7\xe0\xe1\xfb\xeb\xe0 \xe2\xfb\xea\xeb\xfe\xf7\xe8\xf2\xfc \xf1\xf2\xf0\xe8\xec\\[DC] Vden - 08_Telegram.mp4" -lavfi "[0:v]settb=AVTB,setpts=PTS-STARTPTS,format=pix_fmts=yuv420p10,fps=24000/1001,scale=1920:1080:flags=bicubic[main];[1:v]settb=AVTB,setpts=PTS-STARTPTS,format=pix_fmts=yuv420p,fps=24000/1001,scale=1920:1080:flags=bicubic[ref];[main][ref]ssim=eof_action=endall:stats_file='D\\:/Convert/FFMetrics/logs/ssim_logfile-6.txt'" -f null -
Input #0, matroska,webm, from 'G:\Аниме\Онгоинги\!_35_Лето_2024\DreamCast\Витубер - Я стала популярной после того, как забыла выключить стрим\[DC] Vden - 08_Telegram_HEVC.mkv':
  Metadata:
    COMPATIBLE_BRANDS: isomiso2avc1mp41
    MAJOR_BRAND     : isom
    MINOR_VERSION   : 512
    ENCODER         : Lavf61.7.100
  Duration: 00:23:46.60, start: -0.021000, bitrate: 1463 kb/s
  Stream #0:0: Video: hevc (Main 10), yuv420p10le(tv, bt709, progressive), 1920x1080 [SAR 1:1 DAR 16:9], 23.98 fps, 23.98 tbr, 1k tbn (default)
      Metadata:
        HANDLER_NAME    : VideoHandler
        VENDOR_ID       : [0][0][0][0]
        ENCODER         : Lavc61.19.100 libx265
        BPS             : 1266755
        DURATION        : 00:23:46.466708333
        NUMBER_OF_FRAMES: 34201
        NUMBER_OF_BYTES : 225872946
        _STATISTICS_WRITING_APP: mkvpropedit v66.0.0 ('Josie') 64-bit
        _STATISTICS_WRITING_DATE_UTC: 2025-05-06 18:22:35
        _STATISTICS_TAGS: BPS DURATION NUMBER_OF_FRAMES NUMBER_OF_BYTES
  Stream #0:1: Audio: aac (LC), 48000 Hz, stereo, fltp (default)
      Metadata:
        HANDLER_NAME    : SoundHandler
        VENDOR_ID       : [0][0][0][0]
        ENCODER         : Lavc61.19.100 aac
        BPS             : 192996
        DURATION        : 00:23:46.602000000
        NUMBER_OF_FRAMES: 66873
        NUMBER_OF_BYTES : 34416203
        _STATISTICS_WRITING_APP: mkvpropedit v66.0.0 ('Josie') 64-bit
        _STATISTICS_WRITING_DATE_UTC: 2025-05-06 18:22:35
        _STATISTICS_TAGS: BPS DURATION NUMBER_OF_FRAMES NUMBER_OF_BYTES
Input #1, mov,mp4,m4a,3gp,3g2,mj2, from 'G:\Аниме\Онгоинги\!_35_Лето_2024\DreamCast\Витубер - Я стала популярной после того, как забыла выключить стрим\[DC] Vden - 08_Telegram.mp4':
  Metadata:
    major_brand     : isom
    minor_version   : 512
    compatible_brands: isomiso2avc1mp41
    encoder         : Lavf60.16.100
  Duration: 00:23:46.58, start: 0.000000, bitrate: 3578 kb/s
  Stream #1:0[0x1](und): Video: h264 (High) (avc1 / 0x31637661), yuv420p(tv, bt709, progressive), 1920x1080 [SAR 1:1 DAR 16:9], 3430 kb/s, 23.98 fps, 23.98 tbr, 24k tbn (default)
      Metadata:
        handler_name    : VideoHandler
        vendor_id       : [0][0][0][0]
        encoder         : Lavc60.31.102 h264_qsv
  Stream #1:1[0x2](und): Audio: aac (HE-AACv2) (mp4a / 0x6134706D), 48000 Hz, stereo, fltp, 144 kb/s (default)
      Metadata:
        handler_name    : SoundHandler
        vendor_id       : [0][0][0][0]
Stream mapping:
  Stream #0:0 (hevc) -> settb:default
  Stream #1:0 (h264) -> settb:default
  ssim:default -> Stream #0:0 (wrapped_avframe)
  Stream #0:1 -> #0:1 (aac (native) -> pcm_s16le (native))
Output #0, null, to 'pipe:':
  Metadata:
    COMPATIBLE_BRANDS: isomiso2avc1mp41
    MAJOR_BRAND     : isom
    MINOR_VERSION   : 512
    encoder         : Lavf61.7.100
  Stream #0:0: Video: wrapped_avframe, yuv420p10le(tv, bt709, progressive), 1920x1080 [SAR 1:1 DAR 16:9], q=2-31, 200 kb/s, 23.98 fps, 23.98 tbn
      Metadata:
        encoder         : Lavc61.19.100 wrapped_avframe
  Stream #0:1: Audio: pcm_s16le, 48000 Hz, stereo, s16, 1536 kb/s (default)
      Metadata:
        HANDLER_NAME    : SoundHandler
        VENDOR_ID       : [0][0][0][0]
        _STATISTICS_TAGS: BPS DURATION NUMBER_OF_FRAMES NUMBER_OF_BYTES
        BPS             : 192996
        DURATION        : 00:23:46.602000000
        NUMBER_OF_FRAMES: 66873
        NUMBER_OF_BYTES : 34416203
        _STATISTICS_WRITING_APP: mkvpropedit v66.0.0 ('Josie') 64-bit
        _STATISTICS_WRITING_DATE_UTC: 2025-05-06 18:22:35
        encoder         : Lavc61.19.100 pcm_s16le
frame=  162 fps=0.0 q=-0.0 size=N/A time=00:00:06.75 bitrate=N/A speed=13.1x    frame=  308 fps=301 q=-0.0 size=N/A time=00:00:12.84 bitrate=N/A speed=12.5x    frame=  464 fps=299 q=-0.0 size=N/A time=00:00:19.35 bitrate=N/A speed=12.5x    frame=  617 fps=300 q=-0.0 size=N/A time=00:00:25.73 bitrate=N/A speed=12.5x    frame=  759 fps=294 q=-0.0 size=N/A time=00:00:31.65 bitrate=N/A speed=12.3x    frame=  893 fps=289 q=-0.0 size=N/A time=00:00:37.24 bitrate=N/A speed=12.1x    frame= 1047 fps=290 q=-0.0 size=N/A time=00:00:43.66 bitrate=N/A speed=12.1x    frame= 1185 fps=288 q=-0.0 size=N/A time=00:00:49.42 bitrate=N/A speed=  12x    frame= 1331 fps=287 q=-0.0 size=N/A time=00:00:55.51 bitrate=N/A speed=  12x    frame= 1448 fps=281 q=-0.0 size=N/A time=00:01:00.39 bitrate=N/A speed=11.7x    frame= 1580 fps=279 q=-0.0 size=N/A time=00:01:05.89 bitrate=N/A speed=11.6x    frame= 1700 fps=275 q=-0.0 size=N/A time=00:01:10.90 bitrate=N/A speed=11.5x    frame= 1866 fps=279 q=-0.0 size=N/A time=00:01:17.82 bitrate=N/A speed=11.6x    frame= 2018 fps=280 q=-0.0 size=N/A time=00:01:24.16 bitrate=N/A speed=11.7x    frame= 2140 fps=277 q=-0.0 size=N/A time=00:01:29.25 bitrate=N/A speed=11.5x    frame= 2269 fps=275 q=-0.0 size=N/A time=00:01:34.63 bitrate=N/A speed=11.5x    frame= 2401 fps=274 q=-0.0 size=N/A time=00:01:40.14 bitrate=N/A speed=11.4x    frame= 2540 fps=274 q=-0.0 size=N/A time=00:01:45.93 bitrate=N/A speed=11.4x    frame= 2711 fps=277 q=-0.0 size=N/A time=00:01:53.07 bitrate=N/A speed=11.5x    frame= 2889 fps=280 q=-0.0 size=N/A time=00:02:00.49 bitrate=N/A speed=11.7x    frame= 3103 fps=287 q=-0.0 size=N/A time=00:02:09.42 bitrate=N/A speed=  12x    frame= 3303 fps=291 q=-0.0 size=N/A time=00:02:17.76 bitrate=N/A speed=12.1x    frame= 3482 fps=294 q=-0.0 size=N/A time=00:02:25.22 bitrate=N/A speed=12.3x    frame= 3680 fps=297 q=-0.0 size=N/A time=00:02:33.48 bitrate=N/A speed=12.4x    frame= 3876 fps=301 q=-0.0 size=N/A time=00:02:41.66 bitrate=N/A speed=12.5x    frame= 4044 fps=302 q=-0.0 size=N/A time=00:02:48.66 bitrate=N/A speed=12.6x    frame= 4216 fps=303 q=-0.0 size=N/A time=00:02:55.84 bitrate=N/A speed=12.6x    frame= 4367 fps=303 q=-0.0 size=N/A time=00:03:02.14 bitrate=N/A speed=12.6x    frame= 4520 fps=302 q=-0.0 size=N/A time=00:03:08.52 bitrate=N/A speed=12.6x    frame= 4712 fps=305 q=-0.0 size=N/A time=00:03:16.52 bitrate=N/A speed=12.7x    frame= 4918 fps=308 q=-0.0 size=N/A time=00:03:25.12 bitrate=N/A speed=12.8x    frame= 5138 fps=312 q=-0.0 size=N/A time=00:03:34.29 bitrate=N/A speed=  13x    frame= 5382 fps=316 q=-0.0 size=N/A time=00:03:44.47 bitrate=N/A speed=13.2x    frame= 5620 fps=321 q=-0.0 size=N/A time=00:03:54.40 bitrate=N/A speed=13.4x    frame= 5828 fps=323 q=-0.0 size=N/A time=00:04:03.07 bitrate=N/A speed=13.5x    frame= 6085 fps=328 q=-0.0 size=N/A time=00:04:13.79 bitrate=N/A speed=13.7x    frame= 6305 fps=330 q=-0.0 size=N/A time=00:04:22.97 bitrate=N/A speed=13.8x    frame= 6501 fps=332 q=-0.0 size=N/A time=00:04:31.14 bitrate=N/A speed=13.8x    frame= 6753 fps=336 q=-0.0 size=N/A time=00:04:41.65 bitrate=N/A speed=  14x    frame= 7008 fps=340 q=-0.0 size=N/A time=00:04:52.29 bitrate=N/A speed=14.2x    frame= 7249 fps=343 q=-0.0 size=N/A time=00:05:02.34 bitrate=N/A speed=14.3x    frame= 7496 fps=346 q=-0.0 size=N/A time=00:05:12.64 bitrate=N/A speed=14.4x    frame= 7746 fps=349 q=-0.0 size=N/A time=00:05:23.07 bitrate=N/A speed=14.5x    frame= 7991 fps=352 q=-0.0 size=N/A time=00:05:33.29 bitrate=N/A speed=14.7x    frame= 8248 fps=355 q=-0.0 size=N/A time=00:05:44.01 bitrate=N/A speed=14.8x    frame= 8506 fps=358 q=-0.0 size=N/A time=00:05:54.77 bitrate=N/A speed=14.9x    frame= 8761 fps=361 q=-0.0 size=N/A time=00:06:05.40 bitrate=N/A speed=15.1x    frame= 9005 fps=363 q=-0.0 size=N/A time=00:06:15.58 bitrate=N/A speed=15.2x    frame= 9212 fps=364 q=-0.0 size=N/A time=00:06:24.21 bitrate=N/A speed=15.2x    frame= 9485 fps=367 q=-0.0 size=N/A time=00:06:35.60 bitrate=N/A speed=15.3x    frame= 9731 fps=370 q=-0.0 size=N/A time=00:06:45.86 bitrate=N/A speed=15.4x    frame=10000 fps=373 q=-0.0 size=N/A time=00:06:57.08 bitrate=N/A speed=15.5x    frame=10250 fps=375 q=-0.0 size=N/A time=00:07:07.51 bitrate=N/A speed=15.6x    frame=10506 fps=377 q=-0.0 size=N/A time=00:07:18.18 bitrate=N/A speed=15.7x    frame=10731 fps=378 q=-0.0 size=N/A time=00:07:27.57 bitrate=N/A speed=15.8x    frame=10912 fps=378 q=-0.0 size=N/A time=00:07:35.12 bitrate=N/A speed=15.7x    frame=11164 fps=380 q=-0.0 size=N/A time=00:07:45.63 bitrate=N/A speed=15.8x    frame=11409 fps=381 q=-0.0 size=N/A time=00:07:55.85 bitrate=N/A speed=15.9x    frame=11635 fps=382 q=-0.0 size=N/A time=00:08:05.27 bitrate=N/A speed=15.9x    frame=11863 fps=383 q=-0.0 size=N/A time=00:08:14.78 bitrate=N/A speed=  16x    frame=12120 fps=385 q=-0.0 size=N/A time=00:08:25.50 bitrate=N/A speed=16.1x    frame=12338 fps=385 q=-0.0 size=N/A time=00:08:34.59 bitrate=N/A speed=16.1x    frame=12542 fps=386 q=-0.0 size=N/A time=00:08:43.10 bitrate=N/A speed=16.1x    frame=12794 fps=387 q=-0.0 size=N/A time=00:08:53.61 bitrate=N/A speed=16.2x    frame=13038 fps=388 q=-0.0 size=N/A time=00:09:03.79 bitrate=N/A speed=16.2x    frame=13295 fps=390 q=-0.0 size=N/A time=00:09:14.51 bitrate=N/A speed=16.3x    frame=13556 fps=392 q=-0.0 size=N/A time=00:09:25.39 bitrate=N/A speed=16.3x    frame=13801 fps=393 q=-0.0 size=N/A time=00:09:35.61 bitrate=N/A speed=16.4x    frame=14038 fps=394 q=-0.0 size=N/A time=00:09:45.50 bitrate=N/A speed=16.4x    frame=14257 fps=395 q=-0.0 size=N/A time=00:09:54.63 bitrate=N/A speed=16.5x    frame=14486 fps=395 q=-0.0 size=N/A time=00:10:04.18 bitrate=N/A speed=16.5x    frame=14718 fps=396 q=-0.0 size=N/A time=00:10:13.86 bitrate=N/A speed=16.5x    frame=14966 fps=397 q=-0.0 size=N/A time=00:10:24.20 bitrate=N/A speed=16.6x    frame=15196 fps=398 q=-0.0 size=N/A time=00:10:33.79 bitrate=N/A speed=16.6x    frame=15426 fps=398 q=-0.0 size=N/A time=00:10:43.39 bitrate=N/A speed=16.6x    frame=15658 fps=399 q=-0.0 size=N/A time=00:10:53.06 bitrate=N/A speed=16.7x    frame=15880 fps=400 q=-0.0 size=N/A time=00:11:02.32 bitrate=N/A speed=16.7x    frame=16130 fps=401 q=-0.0 size=N/A time=00:11:12.75 bitrate=N/A speed=16.7x    frame=16368 fps=401 q=-0.0 size=N/A time=00:11:22.68 bitrate=N/A speed=16.7x    frame=16615 fps=402 q=-0.0 size=N/A time=00:11:32.98 bitrate=N/A speed=16.8x    frame=16867 fps=403 q=-0.0 size=N/A time=00:11:43.49 bitrate=N/A speed=16.8x    frame=17112 fps=404 q=-0.0 size=N/A time=00:11:53.71 bitrate=N/A speed=16.9x    frame=17349 fps=405 q=-0.0 size=N/A time=00:12:03.59 bitrate=N/A speed=16.9x    frame=17583 fps=406 q=-0.0 size=N/A time=00:12:13.35 bitrate=N/A speed=16.9x    frame=17849 fps=407 q=-0.0 size=N/A time=00:12:24.45 bitrate=N/A speed=  17x    frame=18065 fps=407 q=-0.0 size=N/A time=00:12:33.46 bitrate=N/A speed=  17x    frame=18310 fps=408 q=-0.0 size=N/A time=00:12:43.67 bitrate=N/A speed=  17x    frame=18540 fps=408 q=-0.0 size=N/A time=00:12:53.27 bitrate=N/A speed=  17x    frame=18736 fps=408 q=-0.0 size=N/A time=00:13:01.44 bitrate=N/A speed=  17x    frame=18951 fps=408 q=-0.0 size=N/A time=00:13:10.41 bitrate=N/A speed=  17x    frame=19164 fps=408 q=-0.0 size=N/A time=00:13:19.29 bitrate=N/A speed=  17x    frame=19398 fps=409 q=-0.0 size=N/A time=00:13:29.05 bitrate=N/A speed=  17x    frame=19635 fps=409 q=-0.0 size=N/A time=00:13:38.94 bitrate=N/A speed=17.1x    frame=19869 fps=410 q=-0.0 size=N/A time=00:13:48.70 bitrate=N/A speed=17.1x    frame=20114 fps=410 q=-0.0 size=N/A time=00:13:58.92 bitrate=N/A speed=17.1x    frame=20358 fps=411 q=-0.0 size=N/A time=00:14:09.09 bitrate=N/A speed=17.1x    frame=20595 fps=411 q=-0.0 size=N/A time=00:14:18.98 bitrate=N/A speed=17.2x    frame=20856 fps=412 q=-0.0 size=N/A time=00:14:29.86 bitrate=N/A speed=17.2x    frame=21110 fps=413 q=-0.0 size=N/A time=00:14:40.46 bitrate=N/A speed=17.2x    frame=21366 fps=414 q=-0.0 size=N/A time=00:14:51.14 bitrate=N/A speed=17.3x    frame=21612 fps=415 q=-0.0 size=N/A time=00:15:01.40 bitrate=N/A speed=17.3x    frame=21837 fps=415 q=-0.0 size=N/A time=00:15:10.78 bitrate=N/A speed=17.3x    frame=22056 fps=415 q=-0.0 size=N/A time=00:15:19.91 bitrate=N/A speed=17.3x    frame=22307 fps=416 q=-0.0 size=N/A time=00:15:30.38 bitrate=N/A speed=17.3x    frame=22557 fps=416 q=-0.0 size=N/A time=00:15:40.81 bitrate=N/A speed=17.4x    frame=22806 fps=417 q=-0.0 size=N/A time=00:15:51.20 bitrate=N/A speed=17.4x    frame=23049 fps=417 q=-0.0 size=N/A time=00:16:01.33 bitrate=N/A speed=17.4x    frame=23309 fps=418 q=-0.0 size=N/A time=00:16:12.17 bitrate=N/A speed=17.4x    frame=23550 fps=419 q=-0.0 size=N/A time=00:16:22.23 bitrate=N/A speed=17.5x    frame=23793 fps=419 q=-0.0 size=N/A time=00:16:32.36 bitrate=N/A speed=17.5x    frame=24064 fps=420 q=-0.0 size=N/A time=00:16:43.66 bitrate=N/A speed=17.5x    frame=24340 fps=421 q=-0.0 size=N/A time=00:16:55.18 bitrate=N/A speed=17.6x    frame=24615 fps=422 q=-0.0 size=N/A time=00:17:06.65 bitrate=N/A speed=17.6x    frame=24887 fps=423 q=-0.0 size=N/A time=00:17:17.99 bitrate=N/A speed=17.6x    frame=25163 fps=424 q=-0.0 size=N/A time=00:17:29.50 bitrate=N/A speed=17.7x    frame=25449 fps=425 q=-0.0 size=N/A time=00:17:41.43 bitrate=N/A speed=17.7x    frame=25707 fps=426 q=-0.0 size=N/A time=00:17:52.19 bitrate=N/A speed=17.8x    frame=25987 fps=427 q=-0.0 size=N/A time=00:18:03.87 bitrate=N/A speed=17.8x    frame=26263 fps=428 q=-0.0 size=N/A time=00:18:15.38 bitrate=N/A speed=17.8x    frame=26536 fps=429 q=-0.0 size=N/A time=00:18:26.77 bitrate=N/A speed=17.9x    frame=26803 fps=429 q=-0.0 size=N/A time=00:18:37.90 bitrate=N/A speed=17.9x    frame=27080 fps=430 q=-0.0 size=N/A time=00:18:49.46 bitrate=N/A speed=17.9x    frame=27338 fps=431 q=-0.0 size=N/A time=00:19:00.22 bitrate=N/A speed=  18x    frame=27622 fps=432 q=-0.0 size=N/A time=00:19:12.06 bitrate=N/A speed=  18x    frame=27900 fps=432 q=-0.0 size=N/A time=00:19:23.66 bitrate=N/A speed=  18x    frame=28166 fps=433 q=-0.0 size=N/A time=00:19:34.75 bitrate=N/A speed=18.1x    frame=28398 fps=433 q=-0.0 size=N/A time=00:19:44.43 bitrate=N/A speed=18.1x    frame=28677 fps=434 q=-0.0 size=N/A time=00:19:56.06 bitrate=N/A speed=18.1x    frame=28948 fps=435 q=-0.0 size=N/A time=00:20:07.37 bitrate=N/A speed=18.1x    frame=29217 fps=436 q=-0.0 size=N/A time=00:20:18.59 bitrate=N/A speed=18.2x    frame=29494 fps=436 q=-0.0 size=N/A time=00:20:30.14 bitrate=N/A speed=18.2x    frame=29763 fps=437 q=-0.0 size=N/A time=00:20:41.36 bitrate=N/A speed=18.2x    frame=30032 fps=438 q=-0.0 size=N/A time=00:20:52.58 bitrate=N/A speed=18.2x    frame=30275 fps=438 q=-0.0 size=N/A time=00:21:02.71 bitrate=N/A speed=18.3x    frame=30444 fps=437 q=-0.0 size=N/A time=00:21:09.76 bitrate=N/A speed=18.2x    frame=30669 fps=437 q=-0.0 size=N/A time=00:21:19.15 bitrate=N/A speed=18.2x    frame=30856 fps=436 q=-0.0 size=N/A time=00:21:26.95 bitrate=N/A speed=18.2x    frame=31108 fps=437 q=-0.0 size=N/A time=00:21:37.46 bitrate=N/A speed=18.2x    frame=31370 fps=437 q=-0.0 size=N/A time=00:21:48.39 bitrate=N/A speed=18.2x    frame=31608 fps=437 q=-0.0 size=N/A time=00:21:58.31 bitrate=N/A speed=18.2x    frame=31863 fps=438 q=-0.0 size=N/A time=00:22:08.95 bitrate=N/A speed=18.3x    frame=32118 fps=438 q=-0.0 size=N/A time=00:22:19.58 bitrate=N/A speed=18.3x    frame=32385 fps=439 q=-0.0 size=N/A time=00:22:30.72 bitrate=N/A speed=18.3x    frame=32642 fps=439 q=-0.0 size=N/A time=00:22:41.44 bitrate=N/A speed=18.3x    frame=32852 fps=439 q=-0.0 size=N/A time=00:22:50.20 bitrate=N/A speed=18.3x    frame=33064 fps=439 q=-0.0 size=N/A time=00:22:59.04 bitrate=N/A speed=18.3x    frame=33283 fps=439 q=-0.0 size=N/A time=00:23:08.17 bitrate=N/A speed=18.3x    frame=33494 fps=439 q=-0.0 size=N/A time=00:23:16.97 bitrate=N/A speed=18.3x    frame=33714 fps=438 q=-0.0 size=N/A time=00:23:26.15 bitrate=N/A speed=18.3x    frame=33933 fps=438 q=-0.0 size=N/A time=00:23:35.28 bitrate=N/A speed=18.3x    frame=34149 fps=438 q=-0.0 size=N/A time=00:23:44.29 bitrate=N/A speed=18.3x    [Parsed_ssim_10 @ 0000021703a33700] SSIM Y:0.992434 (21.211158) U:0.993524 (21.887135) V:0.993654 (21.975255) All:0.992819 (21.438093)
[out#0/null @ 00000217023a0900] video:14696KiB audio:267492KiB subtitle:0KiB other streams:0KiB global headers:0KiB muxing overhead: unknown
frame=34201 fps=438 q=-0.0 Lsize=N/A time=00:23:46.46 bitrate=N/A speed=18.3x    
